<svg xmlns="http://www.w3.org/2000/svg" width="288.167" height="84.594" viewBox="0 0 288.167 84.594">
  <g id="Group_162503" data-name="Group 162503" transform="translate(-1088.439 -1757.952)">
    <path id="Path_23613" data-name="Path 23613" d="M86.1,117.9c-12.726,0-28.813-.006-38.424-.01h-.057l-7.268,0c-1.2,0-1.968-.387-2.284-1.149-.66-1.592.886-4.522,2.284-5.922L64.323,86.846a15.014,15.014,0,0,0,16.053.361l23.613,23.613c1.407,1.407,3.391,4.245,2.723,5.87-.325.79-1.241,1.194-2.723,1.2C102.393,117.9,96.039,117.9,86.1,117.9Zm24.257-8.762a4.964,4.964,0,0,1-3.535-1.464L83.665,84.522A15,15,0,0,0,85,65.86L106.82,44.037a5,5,0,0,1,7.071,0l28.284,28.284a5.009,5.009,0,0,1,0,7.071l-28.284,28.284A4.971,4.971,0,0,1,110.355,109.141Zm-75,0a4.968,4.968,0,0,1-3.536-1.464L3.535,79.393a5.006,5.006,0,0,1,0-7.071L31.82,44.037a5,5,0,0,1,7.071,0L60.454,65.6a15,15,0,0,0,1.364,19.15L38.891,107.677A4.964,4.964,0,0,1,35.356,109.141ZM63,62.858h0L40.535,40.392c-1.407-1.407-3.391-4.244-2.722-5.869.325-.79,1.241-1.194,2.722-1.2,1.564-.008,7.583-.012,17.891-.012,12.851,0,28.9.006,38.483.01l7.266,0c1.2,0,1.97.387,2.286,1.15.66,1.593-.887,4.522-2.286,5.92L81.96,62.607A15,15,0,0,0,63,62.857Z" transform="translate(1086.366 1724.643)" fill="#191919"/>
    <path id="Path_23614" data-name="Path 23614" d="M65.921,25.949,60.652,11.1H26.288L21.019,25.949H.664l31.79-84.594H54.905l31.85,84.594ZM32.454-6.44H54.486L43.47-37.691Zm93.979-52.205h20.834L114.16,25.949H94.523L61.416-58.645H82.669L104.581.565Z" transform="translate(1229.339 1816.597)" fill="#191919"/>
  </g>
</svg>
