<svg xmlns="http://www.w3.org/2000/svg" width="141.563" height="84.589" viewBox="0 0 141.563 84.589">
  <path id="Path_23613" data-name="Path 23613" d="M86.1,117.9c-12.726,0-28.813-.006-38.424-.01H40.351c-1.2,0-1.968-.387-2.284-1.149-.66-1.592.886-4.522,2.284-5.922L64.323,86.846a15.014,15.014,0,0,0,16.053.361l23.613,23.613c1.407,1.407,3.391,4.245,2.723,5.87-.325.79-1.241,1.194-2.723,1.2C102.393,117.9,96.039,117.9,86.1,117.9Zm24.257-8.762a4.964,4.964,0,0,1-3.535-1.464L83.665,84.522A15,15,0,0,0,85,65.86l21.82-21.823a5,5,0,0,1,7.071,0l28.284,28.284a5.009,5.009,0,0,1,0,7.071l-28.284,28.284a4.971,4.971,0,0,1-3.536,1.465Zm-75,0a4.968,4.968,0,0,1-3.536-1.464L3.535,79.393a5.006,5.006,0,0,1,0-7.071L31.82,44.037a5,5,0,0,1,7.071,0L60.454,65.6a15,15,0,0,0,1.364,19.15L38.891,107.677a4.964,4.964,0,0,1-3.535,1.464ZM63,62.858h0L40.535,40.392c-1.407-1.407-3.391-4.244-2.722-5.869.325-.79,1.241-1.194,2.722-1.2,1.564-.008,7.583-.012,17.891-.012,12.851,0,28.9.006,38.483.01h7.266c1.2,0,1.97.387,2.286,1.15.66,1.593-.887,4.522-2.286,5.92L81.96,62.607a15,15,0,0,0-18.96.25Z" transform="translate(-2.073 -33.311)" fill="#fff"/>
</svg>
